PathFileType	4	(X/Y/Z)	C:\Users\Basilio\Documents\Thesis Gigler\squatting_fais\c3dfiles\075\SJ_pre2\markers_experimental.trc
DataRate	CameraRate	NumFrames	NumMarkers	Units	OrigDataRate	OrigDataStartFrame	OrigNumFrames
200.000000	200.000000	4	61	mm	200.000000	211	1695
Frame#	Time	FHD			LBHD			C7			T10			CLAV			LSHO			LUUPA			LMUPA			LDUPA			LLEP			LMEP			LRAD			LUL			LRFIN			RSHO			RUPA1			RMUPA			RDUPA			RLEP			RMEP			RRAD			RUL			RUFIN			LASI			RASI			USACR			LSACR			RSACR			LTHI1			LTHI2			LTHI3			LTHI4			LLFC			LMFC			LTIB1			LTIB2			LTIB3			LTIB4			LLMAL			LMMAL			LHEE			LMT1			LMT2			LMT5			RTHI			RTHI2			RTHI3			RTHI4			RLFC			RMFC			RTIB1			RTIB2			RTIB3			RTIB4			RLMAL			RMMAL			RHEE			RMT1			RMT2			RMT5			RBHD			
		X1	Y1	Z1	X2	Y2	Z2	X3	Y3	Z3	X4	Y4	Z4	X5	Y5	Z5	X6	Y6	Z6	X7	Y7	Z7	X8	Y8	Z8	X9	Y9	Z9	X10	Y10	Z10	X11	Y11	Z11	X12	Y12	Z12	X13	Y13	Z13	X14	Y14	Z14	X15	Y15	Z15	X16	Y16	Z16	X17	Y17	Z17	X18	Y18	Z18	X19	Y19	Z19	X20	Y20	Z20	X21	Y21	Z21	X22	Y22	Z22	X23	Y23	Z23	X24	Y24	Z24	X25	Y25	Z25	X26	Y26	Z26	X27	Y27	Z27	X28	Y28	Z28	X29	Y29	Z29	X30	Y30	Z30	X31	Y31	Z31	X32	Y32	Z32	X33	Y33	Z33	X34	Y34	Z34	X35	Y35	Z35	X36	Y36	Z36	X37	Y37	Z37	X38	Y38	Z38	X39	Y39	Z39	X40	Y40	Z40	X41	Y41	Z41	X42	Y42	Z42	X43	Y43	Z43	X44	Y44	Z44	X45	Y45	Z45	X46	Y46	Z46	X47	Y47	Z47	X48	Y48	Z48	X49	Y49	Z49	X50	Y50	Z50	X51	Y51	Z51	X52	Y52	Z52	X53	Y53	Z53	X54	Y54	Z54	X55	Y55	Z55	X56	Y56	Z56	X57	Y57	Z57	X58	Y58	Z58	X59	Y59	Z59	X60	Y60	Z60	X61	Y61	Z61	

212	1.055	-200.6860961914063	1695.547485351563	-921.7630004882815	-355.9151306152344	1571.566528320313	-948.928649902344	-382.8497009277344	1460.673583984375	-906.672302246094	-411.387420654297	1135.080200195313	-909.441589355469	-243.0231475830079	1394.69189453125	-906.039245605469	-285.4308166503907	1431.435180664063	-1063.810913085938	-333.9449768066407	1287.910278320313	-1229.763061523438	-298.4292907714844	1251.418823242188	-1222.832885742188	-331.0604553222657	1230.55859375	-1270.373291015625	-325.1233215332032	1146.689575195313	-1299.266967773438	-403.7725830078126	1134.760009765625	-1251.212158203125	-291.8603210449219	969.117614746094	-1125.430053710938	-253.9176483154297	930.6378173828127	-1178.469604492188	-248.7311706542969	951.3743286132815	-1082.516357421875	-284.2669372558594	1428.566284179688	-744.5079956054689	-338.9530639648438	1282.375122070313	-586.8982543945314	-308.9082336425782	1242.447998046875	-590.4999389648439	-346.4305725097657	1224.135986328125	-546.4926147460939	-345.1575927734376	1155.455688476563	-520.0057373046876	-418.0890502929689	1126.230346679688	-552.8449096679689	-247.9294738769532	941.822204589844	-637.9655761718751	-291.0876159667969	966.1871337890627	-696.3576049804689	-233.2219238281251	958.6762695312502	-736.8264770507814	-238.6777648925782	945.8270263671877	-1034.61669921875	-233.8707580566407	961.6458740234377	-783.1375732421877	-395.7624816894532	1036.866821289063	-910.589050292969	-402.6590576171876	1004.149291992188	-937.0151977539065	-400.9774475097657	1007.00830078125	-879.8171997070315	-313.2791442871094	721.0512084960939	-1110.493774414063	-290.5876159667969	640.5193481445314	-1111.247924804688	-243.1825866699219	641.8846435546876	-1095.317138671875	-321.5195312500001	589.7758178710939	-1101.099853515625	-332.5402221679688	482.2762756347657	-1090.712158203125	-284.6602783203126	464.4750366210939	-979.0731201171877	-284.4805908203126	356.2951354980469	-1074.791748046875	-350.4491271972657	322.8798217773438	-1121.507568359375	-307.0892944335938	313.3609313964844	-1105.79736328125	-312.2689819335938	231.4688720703126	-1083.560668945313	-395.0398559570314	95.24120330810548	-1101.3466796875	-355.1818542480469	100.2113647460938	-1024.924194335938	-441.6881408691407	49.96057510375978	-1055.550415039063	-228.448715209961	51.9029006958008	-1069.753051757813	-235.9723358154297	56.77097702026369	-1117.88671875	-282.5120849609376	42.61154937744141	-1165.251098632813	-310.8215637207032	776.903015136719	-705.3175659179689	-275.5742492675782	721.7087402343751	-703.9095458984376	-244.1937561035157	725.7131958007814	-715.1121215820314	-308.0903625488282	641.9976806640626	-709.1140136718751	-327.6945190429688	487.9835815429689	-732.9937744140626	-285.3910827636719	468.5519104003907	-851.4425048828127	-281.0185241699219	335.2120056152344	-778.6687011718752	-339.0375366210938	264.5747985839844	-717.8643798828126	-300.3522033691407	256.1192321777344	-745.2974243164064	-307.5677795410157	207.9396057128907	-777.5723876953127	-384.0616455078126	91.5141067504883	-738.6618041992189	-344.6515808105469	108.2169647216797	-816.772155761719	-425.9494628906251	49.04798126220705	-797.1302490234377	-218.2147521972657	58.31639480590822	-764.3213500976564	-227.0320281982422	57.85233688354494	-723.5762939453126	-269.0398559570313	35.59776306152344	-676.3967285156251	-274.6679077148438	1605.107299804688	-810.7420654296877	
213	1.06	-200.6487884521485	1695.6845703125	-921.7576293945315	-355.9475097656251	1571.708740234375	-948.9995727539065	-382.8870849609376	1460.717407226563	-906.6418457031252	-411.3340454101564	1135.075073242188	-909.4887695312502	-242.9705200195313	1394.708740234375	-906.1099853515627	-285.4148254394532	1431.42041015625	-1063.826416015625	-334.0004882812501	1287.894897460938	-1229.802001953125	-298.4035644531251	1251.385864257813	-1222.867065429688	-331.0165710449219	1230.519409179688	-1270.424560546875	-324.9665832519532	1146.626586914063	-1299.211181640625	-403.7415771484376	1134.7255859375	-1251.253051757813	-291.8525695800782	969.1232910156252	-1125.42041015625	-253.8217468261719	930.5630493164065	-1178.43798828125	-248.6835021972657	951.379577636719	-1082.5087890625	-284.3679199218751	1428.714233398438	-744.5526733398439	-338.9531860351563	1282.364013671875	-586.9310302734376	-308.9267578125001	1242.460693359375	-590.5267333984376	-346.4265441894532	1224.171142578125	-546.5217285156251	-345.1684875488282	1155.495727539063	-519.9990844726564	-418.0442199707032	1126.286499023438	-552.8284301757814	-247.9423980712891	941.841247558594	-637.9801025390626	-291.0439453125001	966.2202148437502	-696.3533935546876	-233.2114410400391	958.666687011719	-736.7850341796876	-238.6607360839844	945.8540649414065	-1034.589721679688	-233.9038085937501	961.6594848632815	-783.0938110351565	-395.7451171875001	1036.867797851563	-910.6368408203127	-402.6224670410157	1004.148315429688	-937.0007934570315	-400.9485473632814	1007.016540527344	-879.8215332031252	-314.0039367675782	721.0883178710939	-1110.669311523438	-290.5576171875001	640.4949951171876	-1111.244995117188	-243.1344757080079	641.8396606445314	-1095.283081054688	-321.3660278320313	589.7080688476564	-1101.077026367188	-332.5298767089844	482.301971435547	-1090.614868164063	-284.6238098144532	464.4593811035157	-979.0591430664065	-285.4383850097657	356.4562988281251	-1075.484497070313	-350.4874572753907	322.8319702148438	-1121.5068359375	-307.2986755371094	313.3402099609376	-1105.8564453125	-312.2986145019532	231.4520721435547	-1083.5654296875	-395.1062316894532	95.26007080078126	-1101.342529296875	-355.1942749023438	100.2318496704102	-1024.875610351563	-441.7132873535157	49.96466064453126	-1055.550415039063	-228.4358673095704	51.90146636962892	-1069.687133789063	-235.965072631836	56.75813293457033	-1117.867553710938	-282.5014343261719	42.58549118041993	-1165.235595703125	-310.7919006347657	776.8803710937502	-705.3283691406251	-275.5653686523438	721.7221679687501	-703.9458618164064	-244.1959381103516	725.7247314453126	-715.1079711914064	-308.0165710449219	642.0444946289064	-709.0646972656251	-327.7096557617188	487.9834594726564	-732.9718627929689	-285.4769287109376	468.5328369140626	-851.4268798828127	-281.0720825195313	335.1861877441407	-778.6792602539065	-339.0419921875001	264.5566101074219	-717.8645629882814	-299.7521972656251	255.9192352294922	-744.8897094726564	-308.3252563476563	207.9337310791016	-778.0984497070315	-384.0157775878907	91.43788146972658	-738.6879272460939	-344.4561462402344	108.1396789550782	-816.6934814453127	-425.9378356933595	49.07518005371095	-797.1360473632815	-218.2326965332032	58.29598999023439	-764.3326416015626	-226.9971618652344	57.86624908447267	-723.5513916015626	-269.0654907226563	35.58424758911134	-676.3706665039064	-274.7044067382813	1605.07373046875	-810.7590332031252	
214	1.065	-201.7402648925782	1695.478149414063	-921.4625244140627	-356.0470275878907	1571.680297851563	-949.015563964844	-382.9138183593751	1460.688842773438	-906.7305297851565	-411.2552490234376	1135.056518554688	-909.4939575195315	-242.9967956542969	1394.70703125	-906.1437988281252	-285.4046936035157	1431.397705078125	-1063.81640625	-333.9153747558594	1287.807861328125	-1229.820190429688	-298.3726806640626	1251.372802734375	-1222.860107421875	-330.9309387207032	1230.43212890625	-1270.414672851563	-324.8842773437501	1146.630004882813	-1299.294311523438	-403.656463623047	1134.723022460938	-1251.25634765625	-291.7796020507813	969.0178833007815	-1125.459106445313	-253.6887969970704	930.521911621094	-1178.333129882813	-248.7303619384766	951.3771972656252	-1082.48388671875	-284.3822021484376	1428.677490234375	-744.6117553710939	-338.9455871582032	1282.388916015625	-586.9636840820314	-308.9311523437501	1242.470581054688	-590.5324096679689	-346.4286499023438	1224.172729492188	-546.5289306640626	-345.1874084472657	1155.487426757813	-520.0568847656251	-418.1410217285157	1126.266357421875	-552.7875976562501	-247.9503326416016	941.8447265625002	-637.9801635742189	-291.0419311523438	966.207946777344	-696.3549804687501	-233.1791534423829	958.678649902344	-736.7507934570314	-238.6165618896485	945.859802246094	-1034.59228515625	-233.8851470947266	961.633239746094	-783.0955810546877	-395.671844482422	1036.841796875	-910.596618652344	-402.5531311035157	1004.101135253906	-937.0132446289065	-400.9471435546876	1007.037658691406	-879.822692871094	-313.1860656738282	721.0469970703126	-1110.542846679688	-290.4443969726563	640.4452514648439	-1111.231567382813	-243.0932159423829	641.8452148437501	-1095.325805664063	-321.2796630859376	589.6708984375001	-1101.0703125	-332.5318908691407	482.2514953613282	-1090.681518554688	-284.6012268066407	464.4568481445314	-979.0605468750002	-284.4049377441407	356.2655029296876	-1074.79736328125	-350.4244079589844	322.8124694824219	-1121.48291015625	-307.0808715820313	313.3008117675782	-1105.79150390625	-312.2903137207032	231.4024963378907	-1083.558837890625	-395.1139221191407	95.23811340332033	-1101.37158203125	-355.1611938476563	100.2628784179688	-1024.914428710938	-441.7179260253907	49.98138427734376	-1055.540893554688	-228.4636993408204	51.89890670776369	-1069.753540039063	-235.9554138183594	56.78908538818361	-1117.9111328125	-282.5935363769532	42.64443969726563	-1165.242919921875	-310.7799072265626	776.8977661132815	-705.2995605468751	-275.5178833007813	721.7254028320314	-703.8350219726564	-244.1870422363282	725.7279052734376	-715.0850219726564	-308.0115051269532	642.0057983398439	-709.0499877929689	-327.6168518066407	488.0314941406251	-732.9884643554689	-285.1460876464844	468.5977783203126	-851.4110107421877	-281.0297851562501	335.2061462402344	-778.6151123046877	-339.0491333007813	264.5093688964844	-717.8610229492189	-300.3428955078126	256.1404113769532	-745.2873535156251	-308.2284240722657	207.9572448730469	-778.130554199219	-384.0633850097657	91.45936584472658	-738.6751098632814	-344.5947875976563	108.176383972168	-816.7673339843752	-425.9581604003907	49.03813552856447	-797.1296997070315	-218.2562255859376	58.31042861938478	-764.3469238281251	-227.0361633300782	57.78779220581056	-723.5775146484376	-269.0258178710938	35.59888076782227	-676.4008178710939	-274.7586059570313	1605.06396484375	-810.7031860351565	
215	1.07	-201.9252319335938	1695.42333984375	-921.368591308594	-356.0244445800782	1571.785522460938	-949.0581054687502	-382.9064025878907	1460.651123046875	-906.757751464844	-411.2673645019532	1135.03857421875	-909.4866943359377	-242.9788208007813	1394.711059570313	-906.132751464844	-285.4138488769532	1431.382568359375	-1063.907470703125	-333.9345397949219	1287.85400390625	-1229.861206054688	-298.3562316894532	1251.31591796875	-1222.887939453125	-330.9951171875001	1230.390502929688	-1270.442016601563	-324.9378967285157	1146.574584960938	-1299.314453125	-403.655731201172	1134.671508789063	-1251.27001953125	-291.7971801757813	968.958923339844	-1125.434448242188	-253.730697631836	930.4844360351565	-1178.403198242188	-248.5942687988282	951.3880615234377	-1082.478759765625	-284.3243103027344	1428.617431640625	-744.5827026367189	-338.9652404785157	1282.4052734375	-587.0187377929689	-308.9503479003907	1242.482788085938	-590.5882568359376	-346.4294738769532	1224.170532226563	-546.5363159179689	-345.1898803710938	1155.517333984375	-520.0322875976564	-418.0974731445314	1126.323852539063	-552.8588867187501	-247.9164428710938	941.8467407226565	-637.9303588867189	-291.0435180664063	966.222595214844	-696.3369140625001	-233.3256988525391	958.6470947265627	-736.9630737304689	-238.4716186523438	945.796081542969	-1034.599853515625	-233.8421936035157	961.6407470703127	-783.0603637695315	-395.6122436523439	1036.848266601563	-910.625427246094	-402.5260009765626	1004.108337402344	-936.963317871094	-400.9208374023439	1007.032165527344	-879.8240356445315	-313.9300231933594	721.0242919921876	-1110.625366210938	-290.4549255371094	640.4332275390626	-1111.216064453125	-243.0267333984376	641.8598022460939	-1095.302001953125	-321.3193054199219	589.7083129882814	-1101.09521484375	-332.5048522949219	482.2292785644532	-1090.68505859375	-284.5669555664063	464.4412536621095	-979.0483398437502	-284.8517761230469	356.3525085449219	-1075.082641601563	-350.4370727539063	322.8680114746094	-1121.511962890625	-307.1291809082032	313.2364196777344	-1105.749633789063	-312.2931213378907	231.4005432128907	-1083.5625	-395.0064086914064	95.2143020629883	-1101.352783203125	-355.1605224609376	100.2083740234375	-1024.92138671875	-441.7016906738282	49.94683074951173	-1055.525390625	-228.4729003906251	51.871150970459	-1069.758178710938	-235.9544067382813	56.7396583557129	-1117.93603515625	-282.5903320312501	42.59521484375001	-1165.235229492188	-310.7302856445313	776.8799438476565	-705.3281250000001	-275.5404052734376	721.6292724609376	-704.0935668945314	-244.1615295410157	725.6929321289064	-715.1092529296876	-308.0201110839844	642.0260009765626	-709.0834350585939	-327.6890258789063	487.9764709472657	-733.0070190429689	-285.6400756835938	468.479461669922	-851.432312011719	-281.0542297363282	335.2163085937501	-778.6987304687502	-339.0803833007813	264.4903259277344	-717.8779296875001	-300.3889160156251	256.0921325683594	-745.3292236328126	-308.2261047363282	207.8812561035157	-778.1221923828127	-384.0695190429689	91.48145294189455	-738.6625366210939	-344.6599121093751	108.2252731323242	-816.7822875976565	-425.9759216308595	49.01921844482423	-797.1209716796877	-218.1996765136719	58.31663894653322	-764.3635864257814	-227.0438537597657	57.78079223632814	-723.6306152343751	-269.0520935058594	35.57416915893555	-676.4259033203126	-274.8105773925782	1605.047241210938	-810.7964477539065	
